# xmcd
#
# Track frame offsets:
#	150
#	9755
#	26386
#	38698
#	56607
#	68046
#	88601
#	112562
#	135122
#
# Disc length: 1883 seconds
#
# Revision: 1
# Processed by: cddbd v1.4PL0 Copyright (c) Steve Scherf et al.
# Submitted via: audiograbber 1.81.03
#
DISCID=55075909
DTITLE=Mr. Airplane Man - Primitive!
DYEAR=2000
DGENRE=
TTITLE0=Johnny Johnny
TTITLE1=Pretty Baby
TTITLE2=I'm In Love With You
TTITLE3=H.O.B.
TTITLE4=All Alone
TTITLE5=Could You Be My Man
TTITLE6=Blue As I Can Be
TTITLE7=Telephone
TTITLE8=Ivy
EXTD=
EXTT0=
EXTT1=
EXTT2=
EXTT3=
EXTT4=
EXTT5=
EXTT6=
EXTT7=
EXTT8=
PLAYORDER=
